<?xml version="1.0" encoding="UTF-8" standalone="no"?>
<!DOCTYPE svg PUBLIC "-//W3C//DTD SVG 1.1//EN" "http://www.w3.org/Graphics/SVG/1.1/DTD/svg11.dtd">
<svg width="100%" height="100%" viewBox="0 0 2500 2500" version="1.1" xmlns="http://www.w3.org/2000/svg" xmlns:xlink="http://www.w3.org/1999/xlink" xml:space="preserve" xmlns:serif="http://www.serif.com/" style="fill-rule:evenodd;clip-rule:evenodd;stroke-linejoin:round;stroke-miterlimit:2;">
    <g id="MediaFusion-Logo" serif:id="MediaFusion Logo" transform="matrix(1,0,0,1,-295.5,-834.397847)">
        <g id="Upper-Arrow" serif:id="Upper Arrow">
            <path d="M1045,1906L899,1818C1399.404,1172.404 2536.032,1126.877 2735,2091C2676.009,964.626 1584.778,653.234 667,1657L522,1561L491,2167L1045,1906Z" style="fill:url(#_Linear1);"/>
            <path d="M524,1486C824.546,974.804 1472.686,766.455 2044,1011C1533.464,916.851 1016.558,1144.339 658,1578L524,1486Z" style="fill:url(#_Linear2);"/>
            <path d="M1367,1453C2038.269,1111.154 2702.533,1344.171 2735,2091C2574.168,1372.002 1947.277,1211.848 1367,1453Z" style="fill:url(#_Linear3);"/>
            <path d="M490,2166C979.374,1230.007 2092.096,716.423 2641,1642C2289.628,766.894 1282.268,952.517 667,1657L521,1560L490,2166Z" style="fill:url(#_Linear4);"/>
        </g>
        <g id="Down-Arrow" serif:id="Down Arrow" transform="matrix(-1,-0,0,-1,3091,4168.795694)">
            <path d="M1045,1906L899,1818C1399.404,1172.404 2536.032,1126.877 2735,2091C2676.009,964.626 1584.778,653.234 667,1657L522,1561L491,2167L1045,1906Z" style="fill:url(#_Linear5);"/>
            <path d="M524,1486C824.546,974.804 1472.686,766.455 2044,1011C1533.464,916.851 1016.558,1144.339 658,1578L524,1486Z" style="fill:url(#_Linear6);"/>
            <path d="M1367,1453C2038.269,1111.154 2702.533,1344.171 2735,2091C2574.168,1372.002 1947.277,1211.848 1367,1453Z" style="fill:url(#_Linear7);"/>
            <path d="M490,2166C979.374,1230.007 2092.096,716.423 2641,1642C2289.628,766.894 1282.268,952.517 667,1657L521,1560L490,2166Z" style="fill:url(#_Linear8);"/>
        </g>
        <g id="Play-Icon" serif:id="Play Icon">
            <g transform="matrix(0,1.108723,-0.986778,0,3706.314245,281.596713)">
                <path d="M1580.87,1759.065C1588.809,1744.98 1602.635,1736.469 1617.473,1736.532C1632.311,1736.594 1646.079,1745.223 1653.923,1759.374C1712.531,1866.453 1818.697,2066.174 1982.758,2400.036C1990.16,2415.051 1989.944,2433.344 1982.189,2448.132C1974.434,2462.92 1960.297,2471.997 1945.021,2471.997C1793.726,2472 1447.553,2472 1297.987,2472C1282.912,2472 1268.93,2463.159 1261.107,2448.68C1253.284,2434.2 1252.755,2416.184 1259.711,2401.157C1358.92,2186.761 1458.215,1977.573 1580.87,1759.065Z" style="fill:url(#_Linear9);"/>
            </g>
            <g transform="matrix(0,1,-0.890013,0,3494.111252,460)">
                <path d="M1579.129,1776.229C1587.613,1759.464 1603.442,1749.092 1620.606,1749.05C1637.77,1749.008 1653.639,1759.302 1662.188,1776.025C1738.711,1925.706 1900.707,2242.572 1976.837,2391.485C1985.34,2408.116 1985.31,2428.579 1976.758,2445.179C1968.207,2461.779 1952.43,2472 1935.359,2472C1783.318,2472 1460.958,2472 1309.227,2472C1292.194,2472 1276.445,2461.823 1267.88,2445.28C1259.315,2428.737 1259.226,2408.325 1267.646,2391.688C1342.933,2242.928 1503.299,1926.061 1579.129,1776.229Z" style="fill:url(#_Linear10);"/>
            </g>
        </g>
    </g>
    <defs>
        <linearGradient id="_Linear1" x1="0" y1="0" x2="1" y2="0" gradientUnits="userSpaceOnUse" gradientTransform="matrix(1204,-1225,1225,1204,474,2213)"><stop offset="0" style="stop-color:rgb(61,6,94);stop-opacity:1"/><stop offset="0.14" style="stop-color:rgb(103,42,122);stop-opacity:1"/><stop offset="0.5" style="stop-color:rgb(103,42,122);stop-opacity:1"/><stop offset="0.7" style="stop-color:rgb(135,60,104);stop-opacity:1"/><stop offset="0.95" style="stop-color:rgb(214,102,60);stop-opacity:1"/><stop offset="1" style="stop-color:rgb(233,112,50);stop-opacity:1"/></linearGradient>
        <linearGradient id="_Linear2" x1="0" y1="0" x2="1" y2="0" gradientUnits="userSpaceOnUse" gradientTransform="matrix(974,-782,782,974,629,1426)"><stop offset="0" style="stop-color:rgb(61,6,94);stop-opacity:1"/><stop offset="0.37" style="stop-color:rgb(67,11,98);stop-opacity:1"/><stop offset="0.58" style="stop-color:rgb(103,42,122);stop-opacity:1"/><stop offset="0.8" style="stop-color:rgb(135,56,106);stop-opacity:1"/><stop offset="1" style="stop-color:rgb(242,105,53);stop-opacity:1"/></linearGradient>
        <linearGradient id="_Linear3" x1="0" y1="0" x2="1" y2="0" gradientUnits="userSpaceOnUse" gradientTransform="matrix(1316,146,-146,1316,1480,1311)"><stop offset="0" style="stop-color:rgb(61,6,94);stop-opacity:1"/><stop offset="0.64" style="stop-color:rgb(85,21,91);stop-opacity:1"/><stop offset="0.84" style="stop-color:rgb(147,62,84);stop-opacity:1"/><stop offset="1" style="stop-color:rgb(219,109,76);stop-opacity:1"/></linearGradient>
        <linearGradient id="_Linear4" x1="0" y1="0" x2="1" y2="0" gradientUnits="userSpaceOnUse" gradientTransform="matrix(1264,-1234,1234,1264,640,1793)"><stop offset="0" style="stop-color:rgb(61,6,94);stop-opacity:1"/><stop offset="0.42" style="stop-color:rgb(90,24,87);stop-opacity:1"/><stop offset="0.59" style="stop-color:rgb(150,61,72);stop-opacity:1"/><stop offset="0.74" style="stop-color:rgb(207,96,57);stop-opacity:1"/><stop offset="1" style="stop-color:rgb(226,83,59);stop-opacity:1"/></linearGradient>
        <linearGradient id="_Linear5" x1="0" y1="0" x2="1" y2="0" gradientUnits="userSpaceOnUse" gradientTransform="matrix(-1101,833,-833,-1101,2221,949.795694)"><stop offset="0" style="stop-color:rgb(61,6,94);stop-opacity:1"/><stop offset="0.14" style="stop-color:rgb(103,42,122);stop-opacity:1"/><stop offset="0.53" style="stop-color:rgb(183,85,77);stop-opacity:1"/><stop offset="0.88" style="stop-color:rgb(214,102,60);stop-opacity:1"/><stop offset="1" style="stop-color:rgb(233,112,50);stop-opacity:1"/></linearGradient>
        <linearGradient id="_Linear6" x1="0" y1="0" x2="1" y2="0" gradientUnits="userSpaceOnUse" gradientTransform="matrix(-956,751,-751,-956,1636,688.795694)"><stop offset="0" style="stop-color:rgb(61,6,94);stop-opacity:1"/><stop offset="0.37" style="stop-color:rgb(67,11,98);stop-opacity:1"/><stop offset="0.58" style="stop-color:rgb(103,42,122);stop-opacity:1"/><stop offset="0.8" style="stop-color:rgb(135,56,106);stop-opacity:1"/><stop offset="1" style="stop-color:rgb(242,105,53);stop-opacity:1"/></linearGradient>
        <linearGradient id="_Linear7" x1="0" y1="0" x2="1" y2="0" gradientUnits="userSpaceOnUse" gradientTransform="matrix(-1058,-82,82,-1058,2711,1601.795694)"><stop offset="0" style="stop-color:rgb(61,6,94);stop-opacity:1"/><stop offset="0.58" style="stop-color:rgb(169,76,82);stop-opacity:1"/><stop offset="1" style="stop-color:rgb(219,109,76);stop-opacity:1"/></linearGradient>
        <linearGradient id="_Linear8" x1="0" y1="0" x2="1" y2="0" gradientUnits="userSpaceOnUse" gradientTransform="matrix(-2071,1112,-1112,-2071,2391,852.795694)"><stop offset="0" style="stop-color:rgb(61,6,94);stop-opacity:1"/><stop offset="0.74" style="stop-color:rgb(207,96,57);stop-opacity:1"/><stop offset="1" style="stop-color:rgb(245,149,51);stop-opacity:1"/></linearGradient>
        <linearGradient id="_Linear9" x1="0" y1="0" x2="1" y2="0" gradientUnits="userSpaceOnUse" gradientTransform="matrix(-457.282782,-513.793581,457.282782,-513.793581,1922.394527,2522.669978)"><stop offset="0" style="stop-color:rgb(236,107,51);stop-opacity:1"/><stop offset="0.57" style="stop-color:rgb(242,136,51);stop-opacity:1"/><stop offset="1" style="stop-color:rgb(245,149,51);stop-opacity:1"/></linearGradient>
        <linearGradient id="_Linear10" x1="0" y1="0" x2="1" y2="0" gradientUnits="userSpaceOnUse" gradientTransform="matrix(-479,-475.274148,423,-538.194602,1926,2533.796875)"><stop offset="0" style="stop-color:rgb(219,88,58);stop-opacity:1"/><stop offset="0.43" style="stop-color:rgb(227,106,55);stop-opacity:1"/><stop offset="1" style="stop-color:rgb(244,145,50);stop-opacity:1"/></linearGradient>
    </defs>
</svg>
